<?xml version="1.0" encoding="iso-8859-1"?>
<!-- Uploaded to: SVG Repo, www.svgrepo.com, Generator: SVG Repo Mixer Tools -->
<svg fill="#000000" height="800px" width="800px" version="1.1" id="Layer_1" xmlns="http://www.w3.org/2000/svg" xmlns:xlink="http://www.w3.org/1999/xlink" 
	 viewBox="0 0 512 512" xml:space="preserve">
<g>
	<g>
		<path d="M494.14,100.019h-79.777c-9.864,0-17.86,7.997-17.86,17.86v358.4h-42.865V242.902c0-9.864-7.997-17.86-17.86-17.86H256
			c-9.864,0-17.86,7.997-17.86,17.86v233.377h-44.056V369.116c0-9.864-7.997-17.86-17.86-17.86H96.447
			c-9.864,0-17.86,7.997-17.86,17.86v107.163H35.721V17.86C35.721,7.997,27.724,0,17.86,0C7.997,0,0,7.997,0,17.86V494.14
			C0,504.003,7.997,512,17.86,512c20.294,0,456.069,0,476.279,0c9.864,0,17.86-7.996,17.86-17.86v-376.26
			C512,108.015,504.003,100.019,494.14,100.019z"/>
	</g>
</g>
</svg>